<svg xmlns="http://www.w3.org/2000/svg" width="113" height="112">
    <path d="M.3 32.4h9.8v-9.8H.3Zm0 0"
        style="stroke:none;fill-rule:evenodd;fill:#e61973;fill-opacity:1"></path>
    <path d="M22.8 9.8h9.7V0h-9.7Zm0 0"
        style="stroke:none;fill-rule:evenodd;fill:#ffb919;fill-opacity:1"></path>
    <path d="M11.6 100.3h9.7v-9.8h-9.7Zm0 0"
        style="stroke:none;fill-rule:evenodd;fill:#1987e6;fill-opacity:1"></path>
    <path d="M79 111.6h9.7v-9.8h-9.8Zm0 0"
        style="stroke:none;fill-rule:evenodd;fill:#ff4b00;fill-opacity:1"></path>
    <path d="M101.4 55h9.7v-9.7h-9.7Zm0 0"
        style="stroke:none;fill-rule:evenodd;fill:#14e691;fill-opacity:1"></path>
    <path d="M101.4 89h9.7v-9.8h-9.7Zm0 0"
        style="stroke:none;fill-rule:evenodd;fill:#ff1928;fill-opacity:1"></path>
    <path
        d="M67.7 9.8h9.7V0h-9.7Zm-11.2 0h9.7V0h-9.7Zm-11.3 0H55V0h-9.8ZM34 9.8h9.8V0H34Zm33.7 11.3h9.7v-9.8h-9.7Zm-11.2 0h9.7v-9.8h-9.7Zm-11.3 0H55v-9.8h-9.8Zm-11.2 0h9.8v-9.8H34Zm56.2 0h9.7v-9.8h-9.7Zm-11.3 0h9.8v-9.8h-9.8Zm-56.1 0h9.7v-9.8h-9.7Zm-11.2 0h9.7v-9.8h-9.7Zm78.6 11.3h9.7v-9.8h-9.7Zm-11.3 0h9.8v-9.8h-9.8Zm-56.1 0h9.7v-9.8h-9.7Zm-11.2 0h9.7v-9.8h-9.7Zm0 11.3h9.7V34h-9.7Zm-11.3 0h9.8V34H.3Zm11.3 11.4h9.7v-9.9h-9.7Zm78.6 0h9.7v-9.9h-9.7Zm-11.3 0h9.8v-9.9h-9.8Zm-11.2 0h9.7v-9.9h-9.7Zm-11.2 0h9.7v-9.9h-9.7ZM.3 55h9.8v-9.9H.3ZM79 66.4h9.8v-9.8h-9.8Zm-11.2 0h9.7v-9.8h-9.7Zm-11.2 0h9.7v-9.8h-9.7Zm-45 0h9.8v-9.8h-9.7Zm89.9 0h9.7v-9.8h-9.7Zm-11.2 0h9.7v-9.8h-9.7Zm-89.9 0h9.8v-9.8H.3Zm101 11.3h9.8v-9.8h-9.7Zm-89.7 0h9.7v-9.8h-9.7Zm78.6 0h9.7v-9.8h-9.7Zm-89.9 0h9.8v-9.8H.3ZM90.2 89h9.7v-9.8h-9.7ZM.3 89h9.8v-9.8H.3ZM79 89h9.8v-9.8h-9.8Zm-56.1 0h9.7v-9.8h-9.7Zm-11.2 0h9.7v-9.8h-9.7Zm78.6 11.3h9.7v-9.8h-9.7Zm-11.3 0h9.8v-9.8h-9.8Zm-11.2 0h9.7v-9.8h-9.7Zm-11.2 0h9.7v-9.8h-9.7Zm-11.3 0H55v-9.8h-9.8Zm-11.2 0h9.8v-9.8H34Zm-11.2 0h9.7v-9.8h-9.7Zm45 11.3h9.6v-9.8h-9.7Zm-11.3 0h9.7v-9.8h-9.7Zm-11.3 0H55v-9.8h-9.8Zm-11.2 0h9.8v-9.8H34Zm-11.2 0h9.7v-9.8h-9.7Zm0 0"
        style="stroke:none;fill-rule:evenodd;fill:#fff;fill-opacity:1"></path>
</svg>