<svg xmlns="http://www.w3.org/2000/svg" width="112" height="112">
    <path d="M90.6 9.8h9.8V0h-9.8Zm0 0"
        style="stroke:none;fill-rule:evenodd;fill:#ff6e00;fill-opacity:1"></path>
    <path d="M0 21.1h9.8v-9.8H0Zm0 0"
        style="stroke:none;fill-rule:evenodd;fill:#6414e6;fill-opacity:1"></path>
    <path d="M11.3 111.6h9.8v-9.8h-9.8Zm0 0"
        style="stroke:none;fill-rule:evenodd;fill:#19bee6;fill-opacity:1"></path>
    <path d="M68 89h9.7v-9.8H68Zm0 0"
        style="stroke:none;fill-rule:evenodd;fill:#e619dc;fill-opacity:1"></path>
    <path
        d="M79.2 9.8H89V0h-9.8ZM68 9.8h9.8V0H68Zm-11.3 0h9.8V0h-9.8Zm-11.3 0H55V0h-9.8ZM34 9.8h9.8V0H34Zm-11.4 0h9.8V0h-9.8Zm-11.3 0h9.8V0h-9.8Zm79.3 11.3h9.8v-9.8h-9.8Zm-11.4 0H89v-9.8h-9.8Zm-11.3 0h9.8v-9.8H68Zm-11.3 0h9.8v-9.8h-9.8Zm-11.3 0H55v-9.8h-9.8Zm-11.3 0h9.8v-9.8H34Zm-11.4 0h9.8v-9.8h-9.8Zm-11.3 0h9.8v-9.8h-9.8ZM102 32.4h9.8v-9.8h-9.8Zm-11.3 0h9.8v-9.8h-9.8Zm-11.4 0H89v-9.8h-9.8Zm-67.9 0h9.8v-9.8h-9.8ZM0 32.4h9.8v-9.8H0Zm101.9 11.3h9.8V34h-9.8Zm-11.3 0h9.8V34h-9.8Zm-79.3 0h9.8V34h-9.8ZM0 43.7h9.8V34H0Zm101.9 11.4h9.8v-9.9h-9.8Zm-11.3 0h9.8v-9.9h-9.8Zm-79.3 0h9.8v-9.9h-9.8ZM0 55h9.8v-9.8H0Zm101.9 11.3h9.8v-9.8h-9.8Zm-11.3 0h9.8v-9.8h-9.8Zm-11.4 0H89v-9.8h-9.8Zm-67.9 0h9.8v-9.8h-9.8ZM0 66.4h9.8v-9.8H0Zm90.6 11.3h9.8v-9.8h-9.8Zm-11.4 0H89v-9.8h-9.8Zm-11.3 0h9.8v-9.8H68Zm-11.3 0h9.8v-9.8h-9.8Zm-11.3 0H55v-9.8h-9.8Zm-11.3 0h9.8v-9.8H34Zm-11.4 0h9.8v-9.8h-9.8Zm-11.3 0h9.8v-9.8h-9.8ZM0 77.7h9.8v-9.8H0ZM56.6 89h9.8v-9.8h-9.8Zm-11.3 0H55v-9.8h-9.8ZM34 89h9.8v-9.8H34Zm-11.4 0h9.8v-9.8h-9.8Zm-11.3 0h9.8v-9.8h-9.8ZM0 89h9.8v-9.8H0Zm11.3 11.3h9.8v-9.8h-9.8Zm-11.3 0h9.8v-9.8H0Zm0 11.3h9.8v-9.8H0Zm0 0"
        style="stroke:none;fill-rule:evenodd;fill:#fff;fill-opacity:1"></path>
</svg>